<svg id="svg" version="1.1" xmlns="http://www.w3.org/2000/svg" xmlns:xlink="http://www.w3.org/1999/xlink" width="400" height="167.1889400921659" viewBox="0, 0, 400,167.1889400921659"><g id="svgg"><path id="path0" d="M102.090 1.108 C 100.586 1.334,98.727 1.715,98.580 1.827 C 98.487 1.897,97.524 2.238,96.440 2.585 C 95.356 2.931,94.377 3.302,94.266 3.408 C 94.155 3.515,93.330 3.966,92.433 4.412 C 91.536 4.857,90.803 5.286,90.803 5.366 C 90.803 5.446,90.515 5.658,90.163 5.838 C 88.495 6.689,85.600 9.211,80.346 14.390 C 79.791 14.937,79.284 15.385,79.217 15.385 C 79.151 15.385,79.097 12.751,79.097 9.532 L 79.097 3.679 63.545 3.679 L 47.993 3.679 47.993 84.950 L 47.993 166.221 65.134 166.221 L 82.274 166.221 82.282 146.697 L 82.290 127.174 83.494 128.450 C 84.157 129.152,85.414 130.493,86.288 131.431 C 88.239 133.524,90.487 135.412,91.765 136.030 C 92.294 136.286,92.839 136.588,92.977 136.703 C 93.610 137.227,96.894 138.095,98.788 138.239 C 99.546 138.297,100.167 138.408,100.167 138.486 C 100.167 138.565,100.694 138.629,101.338 138.629 C 102.007 138.629,102.508 138.557,102.508 138.462 C 102.508 138.368,102.969 138.294,103.554 138.294 C 107.077 138.291,111.989 136.618,114.400 134.600 C 114.829 134.240,115.234 133.946,115.299 133.946 C 115.429 133.946,117.810 131.521,118.692 130.490 C 119.217 129.877,120.569 127.840,120.569 127.663 C 120.569 127.616,120.701 127.436,120.863 127.262 C 121.025 127.088,121.454 126.282,121.816 125.471 C 122.178 124.660,122.518 123.959,122.570 123.913 C 122.750 123.756,123.116 122.826,123.685 121.084 C 123.998 120.126,124.317 119.260,124.396 119.161 C 124.568 118.941,125.295 116.025,125.691 113.963 C 125.850 113.135,126.030 112.421,126.092 112.375 C 126.602 111.992,127.759 100.011,127.759 95.112 C 127.759 93.800,127.824 92.977,127.926 92.977 C 128.037 92.977,128.094 85.033,128.094 69.482 C 128.094 53.930,128.037 45.987,127.926 45.987 C 127.823 45.987,127.759 45.080,127.758 43.604 C 127.754 38.026,126.696 26.140,126.087 24.833 C 126.001 24.649,125.849 24.009,125.748 23.411 C 125.393 21.299,124.880 19.288,124.127 17.057 C 123.009 13.744,122.736 13.043,122.563 13.043 C 122.478 13.043,122.408 12.930,122.408 12.791 C 122.408 12.409,121.096 9.831,120.726 9.487 C 120.547 9.320,120.401 9.109,120.401 9.016 C 120.401 8.840,119.218 7.183,118.751 6.704 C 118.601 6.551,118.249 6.165,117.969 5.846 C 117.368 5.164,115.492 3.679,115.232 3.679 C 115.132 3.679,115.050 3.599,115.050 3.502 C 115.050 3.316,112.857 2.257,112.077 2.066 C 111.827 2.005,111.579 1.890,111.527 1.811 C 111.200 1.316,104.188 0.793,102.090 1.108 M192.642 1.110 C 192.412 1.144,191.697 1.249,191.054 1.344 C 189.855 1.520,184.834 3.145,184.424 3.488 C 184.300 3.593,183.595 3.989,182.860 4.367 C 182.124 4.745,181.371 5.189,181.187 5.354 C 181.003 5.518,180.538 5.829,180.153 6.045 C 178.871 6.765,175.534 9.646,172.157 12.949 L 169.649 15.403 169.605 9.541 L 169.561 3.679 153.928 3.679 L 138.294 3.679 138.294 84.950 L 138.294 166.221 155.434 166.221 L 172.574 166.221 172.616 146.710 L 172.659 127.200 173.788 128.346 C 174.408 128.976,174.916 129.523,174.916 129.562 C 174.916 129.721,178.519 133.409,179.238 133.985 C 179.666 134.328,180.225 134.780,180.479 134.989 C 181.089 135.490,183.314 136.733,184.365 137.160 C 185.771 137.731,188.405 138.294,189.674 138.294 C 190.111 138.294,190.468 138.370,190.468 138.462 C 190.468 138.665,192.752 138.689,192.877 138.487 C 192.925 138.409,193.701 138.300,194.601 138.244 C 196.857 138.105,200.995 137.130,201.326 136.660 C 201.378 136.586,201.986 136.252,202.676 135.918 C 203.365 135.584,204.231 135.041,204.599 134.712 C 204.967 134.383,205.335 134.114,205.417 134.114 C 205.554 134.114,207.699 131.976,208.959 130.585 C 209.679 129.790,211.308 127.233,211.984 125.837 C 212.297 125.193,212.670 124.452,212.814 124.191 C 212.958 123.930,213.333 122.990,213.647 122.101 C 213.962 121.212,214.331 120.259,214.467 119.983 C 214.728 119.456,215.559 116.338,215.893 114.632 C 216.001 114.080,216.151 113.553,216.225 113.461 C 216.577 113.025,217.629 104.747,217.837 100.777 C 217.899 99.602,218.021 98.695,218.127 98.626 C 218.389 98.457,218.389 39.838,218.127 39.668 C 218.019 39.598,217.899 38.653,217.836 37.375 C 217.617 32.946,216.570 23.983,216.244 23.748 C 216.179 23.701,216.029 23.173,215.911 22.575 C 215.538 20.689,214.556 16.831,214.424 16.733 C 214.355 16.681,214.116 16.074,213.894 15.385 C 213.407 13.869,211.222 9.361,210.919 9.245 C 210.800 9.199,210.702 9.089,210.702 8.999 C 210.702 7.750,206.164 3.623,203.601 2.542 C 202.862 2.231,202.032 1.876,201.756 1.753 C 200.433 1.165,194.918 0.776,192.642 1.110 M263.880 1.107 C 262.039 1.265,258.794 1.710,258.548 1.838 C 258.399 1.915,257.826 2.064,257.274 2.170 C 255.596 2.492,252.508 3.373,252.508 3.531 C 252.508 3.612,252.414 3.679,252.298 3.679 C 251.840 3.679,248.518 5.080,248.328 5.354 C 248.282 5.420,247.696 5.760,247.026 6.110 C 246.356 6.460,245.641 6.904,245.437 7.098 C 245.234 7.291,244.733 7.673,244.325 7.947 C 243.552 8.466,239.799 12.125,239.799 12.360 C 239.799 12.434,239.534 12.776,239.210 13.120 C 238.886 13.464,238.499 13.982,238.351 14.272 C 238.202 14.562,237.922 14.964,237.728 15.165 C 237.533 15.366,237.074 16.118,236.706 16.837 C 236.338 17.556,235.985 18.183,235.921 18.231 C 235.771 18.345,234.448 21.220,234.448 21.433 C 234.448 21.523,234.336 21.708,234.199 21.845 C 234.062 21.982,233.636 23.086,233.252 24.299 C 232.868 25.512,232.497 26.543,232.428 26.590 C 232.280 26.690,231.005 31.832,230.843 32.985 C 230.782 33.422,230.675 33.779,230.606 33.779 C 230.537 33.779,230.434 34.099,230.377 34.490 C 230.320 34.881,230.122 36.163,229.938 37.339 C 229.551 39.813,228.930 45.500,228.930 46.567 C 228.930 46.968,228.863 47.322,228.782 47.352 C 227.996 47.648,227.964 92.077,228.749 92.642 C 228.813 92.688,228.959 93.892,229.073 95.318 C 229.411 99.553,230.272 105.889,230.607 106.605 C 230.693 106.789,230.880 107.542,231.024 108.278 C 231.390 110.161,232.307 113.780,232.443 113.880 C 232.506 113.926,232.836 114.853,233.177 115.940 C 233.518 117.027,234.012 118.344,234.276 118.867 C 234.540 119.389,234.938 120.230,235.161 120.736 C 235.742 122.055,237.428 124.930,237.896 125.399 C 238.115 125.619,238.294 125.874,238.294 125.967 C 238.294 126.649,242.836 131.258,244.649 132.415 C 245.155 132.738,245.644 133.091,245.736 133.200 C 246.069 133.593,249.793 135.409,251.341 135.933 C 252.213 136.229,253.077 136.536,253.261 136.616 C 257.750 138.571,272.029 138.878,279.933 137.189 C 280.991 136.963,281.881 136.705,281.912 136.617 C 281.943 136.528,282.076 136.455,282.209 136.455 C 283.177 136.455,289.226 133.821,289.734 133.178 C 289.836 133.049,289.978 132.943,290.049 132.943 C 290.119 132.943,290.544 132.680,290.992 132.358 C 291.440 132.036,291.863 131.771,291.932 131.769 C 292.001 131.767,292.392 131.429,292.801 131.017 C 293.210 130.605,293.606 130.268,293.681 130.268 C 293.873 130.268,295.714 128.345,296.513 127.310 C 296.881 126.832,297.234 126.418,297.296 126.389 C 297.457 126.315,298.829 124.305,298.832 124.137 C 298.834 124.060,299.003 123.834,299.209 123.636 C 300.059 122.815,302.926 116.640,303.778 113.796 C 304.109 112.692,304.439 111.714,304.511 111.622 C 304.704 111.378,305.441 108.262,305.876 105.853 C 306.083 104.703,306.303 103.725,306.364 103.679 C 306.707 103.422,307.760 93.612,307.961 88.796 C 308.032 87.095,308.147 85.991,308.261 85.917 C 308.545 85.733,308.520 53.147,308.236 53.052 C 308.093 53.004,308.026 52.576,308.025 51.700 C 308.021 47.903,306.758 35.086,306.358 34.783 C 306.298 34.737,306.117 33.946,305.957 33.027 C 305.583 30.877,304.736 27.184,304.530 26.801 C 304.442 26.638,304.064 25.517,303.691 24.308 C 303.318 23.100,302.786 21.656,302.509 21.099 C 302.233 20.542,302.005 19.987,302.004 19.867 C 302.002 19.747,301.675 19.047,301.277 18.311 C 300.879 17.575,300.310 16.522,300.013 15.970 C 299.715 15.418,299.365 14.883,299.234 14.781 C 299.104 14.679,298.997 14.535,298.997 14.462 C 298.997 14.388,298.696 13.929,298.328 13.442 C 297.960 12.955,297.659 12.518,297.659 12.472 C 297.659 12.260,294.088 8.573,293.478 8.156 C 293.248 7.998,292.571 7.490,291.973 7.027 C 291.375 6.563,290.529 6.021,290.092 5.821 C 289.655 5.622,289.298 5.393,289.298 5.312 C 289.298 5.148,287.850 4.473,286.463 3.991 C 285.962 3.817,285.510 3.609,285.460 3.529 C 285.337 3.335,282.025 2.394,280.626 2.155 C 280.015 2.051,279.435 1.902,279.338 1.825 C 278.709 1.326,267.426 0.802,263.880 1.107 M373.077 1.109 C 371.842 1.263,369.644 1.704,369.483 1.831 C 369.390 1.903,368.901 2.060,368.396 2.178 C 367.296 2.436,364.838 3.318,364.718 3.498 C 364.671 3.568,363.917 3.963,363.043 4.375 C 362.169 4.787,361.236 5.326,360.970 5.572 C 360.704 5.818,360.417 6.020,360.332 6.020 C 360.031 6.020,357.378 7.962,356.171 9.066 C 355.841 9.368,355.019 10.105,354.345 10.702 C 353.172 11.742,352.166 12.689,350.391 14.423 C 349.944 14.860,349.523 15.217,349.455 15.217 C 349.387 15.217,349.331 12.621,349.331 9.448 L 349.331 3.679 333.779 3.679 L 318.227 3.679 318.227 69.732 L 318.227 135.786 335.368 135.786 L 352.508 135.786 352.514 87.584 C 352.520 38.093,352.526 37.577,353.119 37.144 C 353.197 37.087,353.403 36.777,353.577 36.455 C 354.183 35.334,355.573 34.281,356.445 34.281 C 356.564 34.281,356.688 34.202,356.720 34.104 C 356.792 33.889,359.374 33.863,359.516 34.077 C 359.571 34.159,359.879 34.316,360.201 34.425 C 361.807 34.971,362.875 36.245,363.374 38.211 C 363.486 38.656,363.544 55.102,363.544 87.333 L 363.545 135.786 380.689 135.786 L 397.833 135.786 397.778 79.975 C 397.728 29.346,397.697 23.970,397.447 22.074 C 397.005 18.714,396.826 17.728,396.385 16.221 C 395.600 13.541,394.785 11.054,394.675 11.004 C 394.615 10.976,394.279 10.370,393.930 9.657 C 393.581 8.944,393.103 8.154,392.868 7.901 C 392.633 7.648,392.340 7.253,392.215 7.023 C 391.893 6.427,390.018 4.648,389.130 4.096 C 388.717 3.839,388.340 3.572,388.294 3.503 C 388.172 3.319,386.337 2.517,385.368 2.225 C 384.908 2.086,384.457 1.911,384.365 1.837 C 383.707 1.302,375.681 0.785,373.077 1.109 M3.344 69.732 L 3.344 135.786 20.485 135.786 L 37.625 135.786 37.625 69.732 L 37.625 3.679 20.485 3.679 L 3.344 3.679 3.344 69.732 M87.892 31.991 C 89.057 32.293,90.304 33.401,90.784 34.559 C 91.108 35.343,91.287 102.289,90.970 104.007 C 90.388 107.157,85.928 108.809,83.824 106.653 C 82.928 105.734,82.595 105.259,82.399 104.616 C 82.066 103.521,82.097 36.024,82.432 34.871 C 83.080 32.636,85.486 31.367,87.892 31.991 M178.829 32.139 C 179.022 32.241,179.218 32.371,179.264 32.429 C 179.310 32.487,179.667 32.782,180.058 33.086 C 181.566 34.261,181.450 31.051,181.399 70.067 L 181.355 104.264 180.853 105.319 C 179.466 108.235,175.108 108.364,173.299 105.543 C 172.373 104.100,172.400 105.246,172.447 69.138 L 172.492 35.368 172.992 34.396 C 174.129 32.186,176.888 31.119,178.829 32.139 M269.678 32.007 C 270.499 32.225,271.082 32.674,271.944 33.748 C 272.878 34.913,272.826 32.800,272.826 69.565 C 272.826 107.721,272.948 104.481,271.440 106.360 C 269.890 108.290,265.527 107.702,264.408 105.414 C 263.701 103.965,263.694 103.579,263.748 68.813 C 263.807 31.600,263.712 34.408,264.944 33.297 C 265.210 33.056,265.579 32.717,265.764 32.544 C 266.484 31.867,268.244 31.625,269.678 32.007 " stroke="none" fill="#043cdc" fill-rule="evenodd"></path><path id="path1" d="" stroke="none" fill="#083cdc" fill-rule="evenodd"></path><path id="path2" d="" stroke="none" fill="#083cdc" fill-rule="evenodd"></path><path id="path3" d="" stroke="none" fill="#083cdc" fill-rule="evenodd"></path><path id="path4" d="" stroke="none" fill="#083cdc" fill-rule="evenodd"></path></g></svg>