<svg id="svg" version="1.1" xmlns="http://www.w3.org/2000/svg" xmlns:xlink="http://www.w3.org/1999/xlink" width="400" height="400.5594405594406" viewBox="0, 0, 400,400.5594405594406"><g id="svgg"><path id="path0" d="M0.000 200.200 L 0.000 400.400 200.000 400.400 L 400.000 400.400 400.000 200.200 L 400.000 0.000 200.000 0.000 L 0.000 0.000 0.000 200.200 M269.200 19.545 C 269.200 19.735,268.120 20.120,266.800 20.400 C 265.480 20.680,264.400 21.045,264.400 21.210 C 264.400 21.376,263.744 21.634,262.942 21.785 C 262.139 21.935,261.104 22.297,260.642 22.590 C 260.179 22.882,259.203 23.246,258.473 23.398 C 257.743 23.551,256.663 23.927,256.073 24.235 C 255.483 24.543,254.685 24.796,254.300 24.798 C 253.915 24.799,253.600 24.966,253.600 25.168 C 253.600 25.371,253.015 25.657,252.300 25.804 C 251.585 25.952,249.920 26.572,248.600 27.182 C 247.280 27.793,245.570 28.516,244.800 28.789 C 243.092 29.395,240.672 30.517,240.400 30.830 C 240.290 30.956,239.345 31.294,238.300 31.582 C 237.255 31.869,236.400 32.241,236.400 32.407 C 236.400 32.574,235.770 32.829,235.000 32.974 C 234.230 33.118,233.600 33.380,233.600 33.555 C 233.600 33.730,232.880 34.089,232.000 34.353 C 231.120 34.616,230.400 35.005,230.400 35.216 C 230.400 35.427,229.963 35.600,229.429 35.600 C 228.894 35.600,228.203 35.854,227.892 36.165 C 227.582 36.476,226.579 36.954,225.664 37.228 C 224.749 37.502,224.000 37.859,224.000 38.020 C 224.000 38.181,223.550 38.426,223.000 38.564 C 222.450 38.702,222.000 38.968,222.000 39.156 C 222.000 39.343,221.190 39.723,220.200 40.000 C 219.210 40.277,218.400 40.641,218.400 40.809 C 218.400 40.976,217.950 41.226,217.400 41.364 C 216.850 41.502,216.400 41.768,216.400 41.956 C 216.400 42.143,215.590 42.523,214.600 42.800 C 213.610 43.077,212.800 43.441,212.800 43.609 C 212.800 43.776,212.350 44.026,211.800 44.164 C 211.250 44.302,210.800 44.592,210.800 44.808 C 210.800 45.023,210.592 45.200,210.339 45.200 C 209.610 45.200,205.600 47.188,205.600 47.548 C 205.600 47.727,204.880 48.089,204.000 48.353 C 203.120 48.616,202.400 49.005,202.400 49.216 C 202.400 49.427,202.143 49.600,201.829 49.600 C 201.514 49.600,200.958 49.899,200.592 50.265 C 200.173 50.684,199.830 50.778,199.664 50.519 C 199.519 50.293,198.995 49.981,198.500 49.827 C 198.005 49.672,197.600 49.385,197.600 49.189 C 197.600 48.993,196.880 48.616,196.000 48.353 C 195.120 48.089,194.400 47.722,194.400 47.537 C 194.400 47.352,194.152 47.200,193.849 47.200 C 193.546 47.200,193.082 46.939,192.817 46.620 C 192.552 46.302,191.680 45.825,190.879 45.560 C 190.078 45.296,189.179 44.836,188.882 44.540 C 188.586 44.243,188.086 44.000,187.771 44.000 C 187.457 44.000,187.200 43.843,187.200 43.652 C 187.200 43.461,186.390 43.077,185.400 42.800 C 184.410 42.523,183.600 42.143,183.600 41.956 C 183.600 41.768,183.150 41.502,182.600 41.364 C 182.050 41.226,181.600 40.976,181.600 40.809 C 181.600 40.641,180.790 40.277,179.800 40.000 C 178.810 39.723,178.000 39.343,178.000 39.156 C 178.000 38.968,177.550 38.702,177.000 38.564 C 176.450 38.426,176.000 38.181,176.000 38.020 C 176.000 37.859,175.251 37.502,174.336 37.228 C 173.421 36.954,172.418 36.476,172.108 36.165 C 171.797 35.854,171.106 35.600,170.571 35.600 C 170.037 35.600,169.600 35.427,169.600 35.216 C 169.600 35.005,168.880 34.616,168.000 34.353 C 167.120 34.089,166.400 33.742,166.400 33.581 C 166.400 33.421,165.770 33.171,165.000 33.026 C 164.230 32.882,163.600 32.615,163.600 32.434 C 163.600 32.252,162.745 31.869,161.700 31.582 C 160.655 31.294,159.710 30.956,159.600 30.830 C 159.321 30.509,156.875 29.381,155.200 28.800 C 153.743 28.295,151.714 27.430,150.000 26.585 C 149.450 26.314,148.415 25.967,147.700 25.814 C 146.985 25.662,146.400 25.382,146.400 25.193 C 146.400 25.004,145.590 24.728,144.600 24.579 C 143.610 24.431,142.800 24.163,142.800 23.983 C 142.800 23.804,141.810 23.436,140.600 23.165 C 139.390 22.894,138.400 22.529,138.400 22.354 C 138.400 22.179,137.770 21.918,137.000 21.774 C 136.230 21.629,135.600 21.376,135.600 21.210 C 135.600 21.045,134.515 20.679,133.188 20.398 C 131.862 20.116,130.681 19.731,130.565 19.543 C 130.447 19.353,161.309 19.200,199.776 19.200 C 238.467 19.200,269.200 19.353,269.200 19.545 M21.600 21.140 C 21.600 21.327,25.422 21.608,30.092 21.766 C 34.763 21.923,38.678 22.189,38.792 22.356 C 38.907 22.524,42.330 22.892,46.400 23.174 C 50.470 23.456,53.890 23.828,54.000 24.000 C 54.110 24.172,55.955 24.444,58.100 24.604 C 60.245 24.764,62.000 25.022,62.000 25.178 C 62.000 25.334,64.250 25.704,67.000 26.000 C 69.750 26.296,72.000 26.667,72.000 26.823 C 72.000 26.978,73.350 27.233,75.000 27.387 C 76.650 27.542,78.000 27.804,78.000 27.969 C 78.000 28.135,79.800 28.500,82.000 28.780 C 84.200 29.061,86.000 29.427,86.000 29.593 C 86.000 29.760,87.080 30.019,88.400 30.168 C 89.720 30.318,90.800 30.582,90.800 30.755 C 90.800 30.929,92.330 31.309,94.200 31.600 C 96.070 31.891,97.600 32.259,97.600 32.418 C 97.600 32.578,98.590 32.832,99.800 32.983 C 101.010 33.134,102.000 33.393,102.000 33.558 C 102.000 33.723,103.440 34.102,105.200 34.400 C 106.960 34.698,108.400 35.074,108.400 35.235 C 108.400 35.397,109.165 35.656,110.100 35.810 C 111.035 35.964,111.980 36.230,112.200 36.401 C 112.420 36.571,113.635 36.940,114.900 37.219 C 116.165 37.499,117.200 37.855,117.200 38.012 C 117.200 38.169,118.100 38.416,119.200 38.562 C 120.300 38.708,121.200 38.977,121.200 39.159 C 121.200 39.341,122.280 39.720,123.600 40.000 C 124.920 40.280,126.000 40.644,126.000 40.809 C 126.000 40.974,126.810 41.231,127.800 41.379 C 128.790 41.528,129.600 41.805,129.600 41.996 C 129.600 42.187,130.590 42.564,131.800 42.835 C 133.010 43.106,134.000 43.479,134.000 43.664 C 134.000 43.849,134.280 44.000,134.622 44.000 C 134.964 44.000,135.999 44.340,136.922 44.755 C 137.845 45.170,139.185 45.634,139.900 45.786 C 140.615 45.939,141.200 46.229,141.200 46.432 C 141.200 46.634,141.480 46.800,141.822 46.800 C 142.164 46.800,143.205 47.147,144.136 47.571 C 145.066 47.995,146.362 48.472,147.014 48.632 C 147.666 48.792,148.290 49.036,148.400 49.174 C 148.510 49.311,149.950 49.956,151.600 50.605 C 153.250 51.255,154.660 51.924,154.733 52.093 C 154.807 52.262,155.168 52.400,155.537 52.400 C 155.905 52.400,157.052 52.850,158.085 53.400 C 159.118 53.950,160.317 54.400,160.748 54.400 C 161.180 54.400,161.593 54.549,161.667 54.732 C 161.820 55.114,166.138 57.200,166.775 57.200 C 167.009 57.200,167.200 57.373,167.200 57.584 C 167.200 57.795,167.920 58.184,168.800 58.447 C 169.680 58.711,170.400 59.064,170.400 59.232 C 170.400 59.399,170.940 59.655,171.600 59.800 C 172.260 59.945,172.800 60.222,172.800 60.416 C 172.800 60.609,173.520 60.984,174.400 61.247 C 175.280 61.511,176.000 61.864,176.000 62.032 C 176.000 62.199,176.525 62.452,177.167 62.593 C 178.403 62.864,179.216 64.000,178.175 64.000 C 177.845 64.000,177.471 64.270,177.345 64.600 C 177.218 64.930,176.900 65.200,176.639 65.200 C 176.377 65.200,175.811 65.470,175.381 65.800 C 173.825 66.995,171.556 68.400,171.182 68.400 C 170.972 68.400,170.800 68.584,170.800 68.810 C 170.800 69.035,170.350 69.391,169.800 69.600 C 169.250 69.809,168.800 70.165,168.800 70.390 C 168.800 70.616,168.558 70.800,168.262 70.800 C 167.966 70.800,167.398 71.160,167.000 71.600 C 166.602 72.040,166.028 72.400,165.725 72.400 C 165.423 72.400,165.071 72.670,164.945 73.000 C 164.818 73.330,164.458 73.600,164.145 73.600 C 163.831 73.600,163.478 73.854,163.359 74.163 C 163.240 74.473,162.628 74.940,162.000 75.200 C 161.372 75.460,160.760 75.927,160.641 76.237 C 160.522 76.546,160.239 76.800,160.013 76.800 C 159.608 76.800,159.095 77.190,156.846 79.208 C 156.228 79.762,155.245 80.433,154.661 80.699 C 154.078 80.965,153.600 81.367,153.600 81.591 C 153.600 81.816,153.375 82.003,153.100 82.007 C 152.825 82.011,152.176 82.461,151.658 83.007 C 151.140 83.553,150.562 84.000,150.374 84.000 C 150.041 84.000,149.005 84.862,146.170 87.500 C 145.402 88.215,144.618 88.800,144.429 88.800 C 144.239 88.800,143.660 89.247,143.142 89.793 C 142.624 90.339,142.058 90.789,141.885 90.793 C 141.712 90.797,140.783 91.610,139.821 92.600 C 138.859 93.590,137.908 94.400,137.709 94.400 C 137.510 94.400,136.819 94.996,136.174 95.725 C 135.528 96.453,134.679 97.229,134.286 97.448 C 133.384 97.953,129.165 101.823,123.767 107.100 C 121.460 109.355,119.440 111.200,119.278 111.200 C 119.116 111.200,116.945 113.315,114.453 115.900 C 111.961 118.485,108.139 122.441,105.961 124.690 C 103.782 126.940,102.000 128.879,102.000 128.999 C 102.000 129.119,101.010 130.239,99.800 131.488 C 98.590 132.738,97.600 133.868,97.600 134.000 C 97.600 134.132,96.655 135.254,95.500 136.493 C 91.936 140.317,90.800 141.615,90.800 141.868 C 90.800 142.096,88.495 144.816,86.778 146.614 C 86.350 147.062,86.000 147.564,86.000 147.731 C 86.000 147.897,85.621 148.431,85.158 148.917 C 84.695 149.403,84.023 150.250,83.665 150.800 C 83.307 151.350,82.696 152.035,82.307 152.323 C 81.918 152.610,81.600 153.040,81.600 153.277 C 81.600 153.514,81.150 154.125,80.600 154.635 C 80.050 155.145,79.600 155.705,79.600 155.881 C 79.599 156.195,78.210 157.995,77.013 159.234 C 76.676 159.582,76.400 160.037,76.400 160.245 C 76.400 160.452,76.040 160.930,75.600 161.307 C 75.160 161.684,74.800 162.245,74.800 162.553 C 74.800 162.862,74.530 163.218,74.200 163.345 C 73.870 163.471,73.600 163.811,73.600 164.099 C 73.600 164.387,73.285 164.912,72.900 165.266 C 71.811 166.267,70.800 167.712,70.800 168.267 C 70.800 168.545,70.440 168.965,70.000 169.200 C 69.560 169.435,69.200 169.892,69.200 170.214 C 69.200 170.536,69.042 170.800,68.849 170.800 C 68.655 170.800,68.273 171.340,68.000 172.000 C 67.727 172.660,67.345 173.200,67.151 173.200 C 66.958 173.200,66.800 173.461,66.800 173.780 C 66.800 174.099,66.575 174.504,66.299 174.680 C 66.024 174.856,65.529 175.540,65.200 176.200 C 64.871 176.860,64.376 177.544,64.101 177.720 C 63.825 177.896,63.600 178.301,63.600 178.620 C 63.600 178.939,63.420 179.200,63.200 179.200 C 62.980 179.200,62.800 178.985,62.800 178.723 C 62.800 178.461,62.092 177.054,61.226 175.598 C 60.361 174.141,59.531 172.465,59.383 171.874 C 59.235 171.283,58.973 170.800,58.801 170.800 C 58.629 170.800,58.371 170.170,58.226 169.400 C 58.082 168.630,57.821 168.000,57.646 168.000 C 57.471 168.000,57.090 167.280,56.800 166.400 C 56.510 165.520,56.135 164.800,55.968 164.800 C 55.800 164.800,55.545 164.260,55.400 163.600 C 55.255 162.940,54.985 162.400,54.800 162.400 C 54.615 162.400,54.337 161.815,54.182 161.100 C 53.919 159.891,52.492 156.858,51.970 156.401 C 51.844 156.291,51.506 155.345,51.218 154.300 C 50.931 153.255,50.559 152.400,50.393 152.400 C 50.226 152.400,49.971 151.770,49.826 151.000 C 49.682 150.230,49.410 149.600,49.222 149.600 C 49.034 149.600,48.664 148.700,48.400 147.600 C 48.136 146.500,47.778 145.600,47.605 145.600 C 47.431 145.600,47.171 144.970,47.026 144.200 C 46.882 143.430,46.621 142.800,46.446 142.800 C 46.271 142.800,45.906 141.810,45.635 140.600 C 45.364 139.390,44.991 138.400,44.806 138.400 C 44.622 138.400,44.349 137.680,44.200 136.800 C 44.051 135.920,43.783 135.200,43.605 135.200 C 43.426 135.200,43.058 134.255,42.788 133.100 C 42.517 131.945,42.155 130.820,41.983 130.600 C 41.812 130.380,41.545 129.525,41.391 128.700 C 41.237 127.875,40.976 127.200,40.810 127.200 C 40.645 127.200,40.280 126.120,40.000 124.800 C 39.720 123.480,39.356 122.400,39.191 122.400 C 39.026 122.400,38.769 121.590,38.621 120.600 C 38.472 119.610,38.207 118.800,38.030 118.800 C 37.854 118.800,37.480 117.720,37.200 116.400 C 36.920 115.080,36.558 114.000,36.397 114.000 C 36.235 114.000,35.984 113.100,35.838 112.000 C 35.692 110.900,35.434 110.000,35.266 110.000 C 35.097 110.000,34.718 108.645,34.424 106.989 C 34.130 105.334,33.747 103.891,33.573 103.783 C 33.398 103.675,33.133 102.600,32.982 101.394 C 32.831 100.187,32.565 99.200,32.390 99.200 C 32.215 99.200,31.869 97.895,31.620 96.300 C 31.371 94.705,31.003 93.101,30.802 92.735 C 30.601 92.369,30.315 91.154,30.167 90.035 C 30.018 88.916,29.772 88.000,29.619 88.000 C 29.466 88.000,29.097 86.290,28.800 84.200 C 28.503 82.110,28.124 80.400,27.957 80.400 C 27.791 80.400,27.529 78.960,27.376 77.200 C 27.222 75.440,26.964 74.000,26.802 74.000 C 26.640 74.000,26.279 71.975,26.000 69.500 C 25.721 67.025,25.350 64.817,25.175 64.593 C 25.000 64.370,24.729 62.615,24.573 60.693 C 24.418 58.772,24.168 57.200,24.019 57.200 C 23.746 57.200,22.785 47.088,22.795 44.333 C 22.798 43.527,22.629 42.807,22.421 42.733 C 22.212 42.660,21.915 39.585,21.760 35.900 C 21.606 32.215,21.327 29.200,21.140 29.200 C 20.953 29.200,20.800 27.310,20.800 25.000 C 20.800 22.467,20.959 20.800,21.200 20.800 C 21.420 20.800,21.600 20.953,21.600 21.140 M379.200 24.200 C 379.200 26.070,379.046 27.600,378.859 27.600 C 378.671 27.600,378.389 30.885,378.232 34.900 C 378.075 38.915,377.778 42.260,377.573 42.333 C 377.368 42.407,377.202 43.127,377.205 43.933 C 377.216 46.706,376.253 56.800,375.978 56.800 C 375.827 56.800,375.576 58.420,375.422 60.400 C 375.267 62.380,375.005 64.000,374.840 64.000 C 374.675 64.000,374.304 66.250,374.016 69.000 C 373.727 71.750,373.354 74.000,373.186 74.000 C 373.018 74.000,372.755 75.260,372.600 76.800 C 372.445 78.340,372.186 79.600,372.024 79.600 C 371.862 79.600,371.500 81.400,371.220 83.600 C 370.939 85.800,370.573 87.600,370.407 87.600 C 370.240 87.600,369.982 88.675,369.833 89.988 C 369.685 91.301,369.414 92.468,369.232 92.580 C 369.049 92.693,368.676 94.229,368.401 95.993 C 368.127 97.757,367.765 99.200,367.597 99.200 C 367.429 99.200,367.168 100.190,367.017 101.400 C 366.866 102.610,366.604 103.600,366.435 103.600 C 366.266 103.600,365.903 104.859,365.628 106.399 C 365.353 107.938,364.985 109.286,364.810 109.394 C 364.635 109.502,364.371 110.402,364.222 111.395 C 364.073 112.388,363.798 113.200,363.612 113.200 C 363.425 113.200,363.060 114.460,362.800 116.000 C 362.540 117.540,362.175 118.800,361.988 118.800 C 361.802 118.800,361.528 119.610,361.379 120.600 C 361.231 121.590,360.974 122.400,360.809 122.400 C 360.644 122.400,360.280 123.480,360.000 124.800 C 359.720 126.120,359.355 127.200,359.190 127.200 C 359.024 127.200,358.763 127.875,358.609 128.700 C 358.455 129.525,358.188 130.380,358.016 130.600 C 357.844 130.820,357.466 131.945,357.176 133.100 C 356.886 134.255,356.523 135.200,356.369 135.200 C 356.215 135.200,355.971 135.830,355.826 136.600 C 355.682 137.370,355.421 138.000,355.246 138.000 C 355.071 138.000,354.706 138.990,354.435 140.200 C 354.164 141.410,353.776 142.400,353.571 142.400 C 353.367 142.400,353.200 142.680,353.200 143.022 C 353.200 143.364,352.835 144.444,352.390 145.422 C 351.944 146.400,351.472 147.740,351.340 148.400 C 351.208 149.060,350.957 149.600,350.782 149.600 C 350.607 149.600,350.345 150.140,350.200 150.800 C 350.055 151.460,349.771 152.000,349.568 152.000 C 349.366 152.000,349.200 152.303,349.200 152.674 C 349.200 153.326,348.577 154.822,346.565 159.006 C 346.034 160.109,345.600 161.234,345.600 161.506 C 345.600 161.778,345.440 162.000,345.245 162.000 C 345.049 162.000,344.771 162.630,344.626 163.400 C 344.482 164.170,344.221 164.800,344.046 164.800 C 343.871 164.800,343.490 165.520,343.200 166.400 C 342.910 167.280,342.535 168.000,342.368 168.000 C 342.200 168.000,341.945 168.540,341.800 169.200 C 341.655 169.860,341.400 170.400,341.232 170.400 C 341.065 170.400,340.690 171.120,340.400 172.000 C 340.110 172.880,339.735 173.600,339.568 173.600 C 339.400 173.600,339.145 174.140,339.000 174.800 C 338.855 175.460,338.600 176.000,338.432 176.000 C 338.265 176.000,337.890 176.720,337.600 177.600 C 337.025 179.343,336.444 179.656,336.116 178.400 C 336.001 177.960,335.760 177.600,335.580 177.600 C 335.401 177.600,335.146 177.261,335.015 176.848 C 334.884 176.434,334.425 175.669,333.996 175.148 C 332.743 173.627,332.631 173.462,332.001 172.200 C 331.671 171.540,331.176 170.856,330.901 170.680 C 330.625 170.504,330.400 170.099,330.400 169.780 C 330.400 169.461,330.211 169.200,329.979 169.200 C 329.748 169.200,329.375 168.674,329.151 168.032 C 328.927 167.390,328.487 166.765,328.172 166.645 C 327.857 166.524,327.600 166.149,327.600 165.813 C 327.600 165.476,327.416 165.200,327.190 165.200 C 326.965 165.200,326.609 164.750,326.400 164.200 C 326.191 163.650,325.847 163.200,325.637 163.200 C 325.426 163.200,325.126 162.795,324.970 162.300 C 324.813 161.805,324.351 161.165,323.943 160.877 C 323.534 160.590,323.200 160.160,323.200 159.923 C 323.200 159.686,322.750 159.075,322.200 158.565 C 321.650 158.055,321.200 157.495,321.200 157.319 C 321.199 157.005,319.810 155.205,318.613 153.966 C 318.276 153.618,318.000 153.132,318.000 152.886 C 318.000 152.641,317.765 152.296,317.478 152.120 C 317.191 151.944,316.426 151.080,315.778 150.200 C 315.130 149.320,314.465 148.540,314.300 148.467 C 314.135 148.393,314.000 148.145,314.000 147.914 C 314.000 147.683,313.398 146.926,312.662 146.232 C 311.926 145.538,311.251 144.776,311.162 144.540 C 310.964 144.014,308.666 141.215,306.900 139.347 C 306.185 138.592,305.600 137.818,305.600 137.628 C 305.600 137.438,305.007 136.762,304.281 136.125 C 303.556 135.488,302.657 134.524,302.285 133.983 C 300.659 131.623,272.842 103.200,272.158 103.200 C 272.001 103.200,271.016 102.320,269.968 101.245 C 268.921 100.169,267.374 98.774,266.532 98.145 C 265.689 97.515,264.555 96.505,264.011 95.900 C 263.467 95.295,262.854 94.800,262.649 94.800 C 262.444 94.800,261.591 94.080,260.754 93.200 C 259.917 92.320,259.039 91.600,258.804 91.600 C 258.568 91.600,257.822 90.970,257.146 90.200 C 256.470 89.430,255.711 88.792,255.459 88.783 C 255.206 88.774,254.558 88.234,254.019 87.583 C 253.479 86.932,252.813 86.400,252.539 86.400 C 252.264 86.400,251.896 86.165,251.720 85.878 C 251.544 85.591,250.680 84.827,249.800 84.180 C 248.920 83.534,248.056 82.779,247.880 82.502 C 247.704 82.226,247.299 82.000,246.980 82.000 C 246.661 82.000,246.400 81.816,246.400 81.591 C 246.400 81.367,245.922 80.965,245.339 80.699 C 244.755 80.433,243.720 79.710,243.039 79.092 C 240.962 77.210,240.417 76.800,239.987 76.800 C 239.761 76.800,239.478 76.546,239.359 76.237 C 239.240 75.927,238.615 75.455,237.971 75.188 C 237.327 74.921,236.800 74.545,236.800 74.351 C 236.800 74.158,236.536 74.000,236.214 74.000 C 235.892 74.000,235.435 73.640,235.200 73.200 C 234.965 72.760,234.545 72.400,234.267 72.400 C 233.712 72.400,232.267 71.389,231.266 70.300 C 230.912 69.915,230.488 69.600,230.324 69.600 C 229.985 69.600,225.279 66.464,224.471 65.700 C 224.181 65.425,223.705 65.200,223.414 65.200 C 223.123 65.200,222.782 64.930,222.655 64.600 C 222.529 64.270,222.155 64.000,221.825 64.000 C 221.456 64.000,221.314 63.769,221.455 63.400 C 221.582 63.070,221.923 62.800,222.214 62.800 C 222.505 62.800,222.987 62.556,223.286 62.257 C 223.585 61.958,224.498 61.472,225.315 61.176 C 226.132 60.881,226.800 60.510,226.800 60.351 C 226.800 60.193,227.340 59.945,228.000 59.800 C 228.660 59.655,229.200 59.392,229.200 59.216 C 229.200 59.039,230.010 58.691,231.000 58.442 C 231.990 58.192,232.800 57.825,232.800 57.626 C 232.800 57.427,233.340 57.145,234.000 57.000 C 234.660 56.855,235.200 56.599,235.200 56.432 C 235.200 56.264,235.920 55.911,236.800 55.647 C 237.680 55.384,238.400 55.009,238.400 54.816 C 238.400 54.622,238.985 54.335,239.700 54.178 C 240.415 54.022,241.627 53.557,242.394 53.147 C 243.161 52.736,244.016 52.400,244.294 52.400 C 244.572 52.400,244.800 52.220,244.800 52.000 C 244.800 51.780,245.122 51.600,245.515 51.600 C 245.909 51.600,246.916 51.250,247.754 50.823 C 248.592 50.396,249.801 49.932,250.439 49.791 C 251.078 49.651,251.600 49.408,251.600 49.251 C 251.600 49.094,252.275 48.764,253.100 48.518 C 255.475 47.810,258.581 46.624,258.800 46.341 C 258.910 46.199,259.750 45.881,260.667 45.635 C 261.583 45.389,262.843 44.921,263.467 44.596 C 264.090 44.271,264.915 44.004,265.300 44.002 C 265.685 44.001,266.000 43.849,266.000 43.664 C 266.000 43.479,266.990 43.090,268.200 42.800 C 269.410 42.510,270.400 42.132,270.400 41.961 C 270.400 41.789,271.210 41.528,272.200 41.379 C 273.190 41.231,274.000 40.974,274.000 40.809 C 274.000 40.644,275.080 40.280,276.400 40.000 C 277.720 39.720,278.800 39.346,278.800 39.170 C 278.800 38.993,279.610 38.728,280.600 38.579 C 281.590 38.431,282.400 38.183,282.400 38.028 C 282.400 37.873,283.572 37.514,285.004 37.229 C 286.436 36.945,287.693 36.572,287.799 36.402 C 287.904 36.232,288.802 35.971,289.795 35.822 C 290.788 35.673,291.600 35.418,291.600 35.255 C 291.600 35.092,292.955 34.718,294.611 34.424 C 296.266 34.130,297.709 33.747,297.817 33.573 C 297.925 33.398,299.000 33.133,300.206 32.982 C 301.413 32.831,302.400 32.571,302.400 32.403 C 302.400 32.235,303.843 31.873,305.607 31.599 C 307.371 31.324,308.907 30.951,309.020 30.768 C 309.132 30.586,310.299 30.315,311.612 30.167 C 312.925 30.018,314.000 29.760,314.000 29.593 C 314.000 29.427,315.800 29.061,318.000 28.780 C 320.200 28.500,322.000 28.138,322.000 27.976 C 322.000 27.814,323.305 27.551,324.900 27.393 C 326.495 27.234,327.892 26.960,328.003 26.785 C 328.115 26.609,330.410 26.238,333.103 25.961 C 335.797 25.683,338.000 25.325,338.000 25.165 C 338.000 25.006,339.755 24.745,341.900 24.586 C 344.045 24.427,345.890 24.160,346.000 23.992 C 346.110 23.824,349.530 23.456,353.600 23.174 C 357.670 22.892,361.093 22.525,361.206 22.359 C 361.319 22.193,365.144 21.928,369.706 21.770 C 374.268 21.611,378.000 21.328,378.000 21.141 C 378.000 20.953,378.270 20.800,378.600 20.800 C 379.086 20.800,379.200 21.444,379.200 24.200 M200.400 76.000 C 200.400 76.220,200.642 76.400,200.939 76.400 C 201.235 76.400,201.893 76.760,202.400 77.200 C 202.907 77.640,203.537 78.000,203.800 78.000 C 204.063 78.000,204.710 78.357,205.239 78.793 C 206.773 80.057,206.936 80.168,208.200 80.799 C 208.860 81.129,209.544 81.624,209.720 81.899 C 209.896 82.175,210.301 82.400,210.620 82.400 C 210.939 82.400,211.200 82.580,211.200 82.800 C 211.200 83.020,211.425 83.200,211.700 83.200 C 211.975 83.201,212.740 83.647,213.400 84.193 C 215.201 85.681,215.305 85.752,216.600 86.399 C 217.260 86.729,217.944 87.224,218.120 87.499 C 218.296 87.775,218.701 88.000,219.020 88.000 C 219.339 88.000,219.600 88.189,219.600 88.421 C 219.600 88.652,220.126 89.025,220.768 89.249 C 221.410 89.473,222.035 89.913,222.155 90.228 C 222.276 90.543,222.561 90.800,222.787 90.800 C 223.014 90.800,223.539 91.115,223.953 91.500 C 225.237 92.695,226.544 93.600,226.985 93.600 C 227.217 93.600,227.632 93.960,227.907 94.400 C 228.182 94.840,228.610 95.200,228.858 95.200 C 229.105 95.200,229.725 95.650,230.235 96.200 C 230.745 96.750,231.332 97.200,231.539 97.200 C 231.746 97.200,232.340 97.647,232.858 98.193 C 233.376 98.739,233.935 99.189,234.100 99.193 C 234.265 99.197,234.742 99.515,235.159 99.900 C 236.272 100.926,238.818 102.947,239.500 103.345 C 239.825 103.535,240.400 103.985,240.779 104.345 C 241.158 104.705,242.344 105.720,243.415 106.600 C 244.486 107.480,246.088 108.830,246.974 109.600 C 247.859 110.370,248.820 111.180,249.108 111.400 C 249.395 111.620,250.536 112.655,251.642 113.700 C 252.748 114.745,253.776 115.600,253.927 115.601 C 254.077 115.601,254.849 116.276,255.642 117.101 C 256.435 117.925,257.923 119.320,258.948 120.200 C 261.519 122.406,278.800 139.620,278.800 139.974 C 278.800 140.132,280.060 141.534,281.600 143.089 C 283.140 144.644,284.400 146.030,284.400 146.167 C 284.400 146.305,285.345 147.407,286.500 148.616 C 288.848 151.075,290.717 153.210,292.084 154.996 C 293.154 156.393,293.550 156.863,295.414 158.956 C 296.176 159.812,296.800 160.642,296.800 160.800 C 296.800 160.958,297.385 161.738,298.100 162.533 C 298.815 163.327,299.713 164.388,300.096 164.889 C 300.479 165.390,301.244 166.340,301.796 167.000 C 302.348 167.660,302.799 168.329,302.800 168.486 C 302.800 168.644,303.337 169.364,303.993 170.086 C 306.049 172.350,306.400 172.791,306.400 173.111 C 306.400 173.282,306.760 173.730,307.200 174.107 C 307.640 174.484,308.000 175.058,308.000 175.382 C 308.000 175.706,308.360 176.165,308.800 176.400 C 309.240 176.635,309.600 177.092,309.600 177.414 C 309.600 177.736,309.758 178.000,309.951 178.000 C 310.145 178.000,310.527 178.540,310.800 179.200 C 311.073 179.860,311.455 180.400,311.649 180.400 C 311.842 180.400,312.000 180.664,312.000 180.986 C 312.000 181.308,312.360 181.765,312.800 182.000 C 313.240 182.235,313.600 182.664,313.600 182.953 C 313.600 183.241,313.957 183.910,314.393 184.439 C 315.657 185.973,315.768 186.136,316.399 187.400 C 316.729 188.060,317.224 188.744,317.499 188.920 C 317.775 189.096,318.000 189.482,318.000 189.777 C 318.000 190.073,318.270 190.418,318.600 190.545 C 318.930 190.671,319.200 191.023,319.200 191.326 C 319.200 191.629,319.560 192.293,320.000 192.800 C 320.440 193.307,320.800 193.965,320.800 194.261 C 320.800 194.558,320.958 194.800,321.151 194.800 C 321.345 194.800,321.727 195.340,322.000 196.000 C 322.273 196.660,322.655 197.200,322.849 197.200 C 323.042 197.200,323.200 197.397,323.200 197.637 C 323.200 197.877,323.563 198.536,324.007 199.100 C 324.747 200.041,324.763 200.195,324.192 200.963 C 323.850 201.423,323.466 202.115,323.339 202.500 C 323.211 202.885,322.992 203.200,322.851 203.200 C 322.710 203.200,322.336 203.785,322.020 204.500 C 321.703 205.215,321.296 205.980,321.115 206.200 C 320.934 206.420,320.429 207.033,319.993 207.561 C 319.557 208.090,319.200 208.771,319.200 209.074 C 319.200 209.377,318.946 209.722,318.636 209.841 C 318.326 209.961,317.953 210.532,317.808 211.111 C 317.662 211.690,317.196 212.407,316.772 212.705 C 316.347 213.002,316.000 213.423,316.000 213.640 C 316.000 213.856,315.817 214.251,315.593 214.517 C 313.963 216.449,313.600 216.988,313.600 217.474 C 313.600 217.777,313.330 218.129,313.000 218.255 C 312.670 218.382,312.400 218.742,312.400 219.055 C 312.400 219.369,312.130 219.729,311.800 219.855 C 311.470 219.982,311.200 220.302,311.200 220.567 C 311.200 220.832,310.876 221.398,310.480 221.825 C 310.084 222.251,309.639 222.915,309.492 223.300 C 309.345 223.685,309.039 224.000,308.813 224.000 C 308.586 224.000,308.400 224.225,308.400 224.500 C 308.399 224.967,307.219 226.579,305.813 228.034 C 305.476 228.382,305.200 228.817,305.200 229.000 C 305.200 229.183,304.931 229.618,304.602 229.966 C 303.446 231.192,302.000 233.119,301.983 233.458 C 301.974 233.646,301.434 234.242,300.783 234.781 C 300.132 235.321,299.600 235.929,299.600 236.133 C 299.600 236.459,298.547 237.770,295.966 240.656 C 295.545 241.127,295.200 241.628,295.200 241.770 C 295.200 241.911,294.660 242.555,294.000 243.200 C 293.340 243.845,292.800 244.519,292.800 244.697 C 292.800 244.876,292.086 245.737,291.213 246.611 C 290.340 247.485,289.620 248.342,289.613 248.515 C 289.606 248.688,288.790 249.617,287.800 250.579 C 286.810 251.541,285.994 252.480,285.986 252.664 C 285.978 252.849,284.898 254.069,283.586 255.375 C 282.274 256.681,281.200 257.878,281.200 258.034 C 281.200 258.389,258.418 281.200,258.061 281.201 C 257.918 281.201,256.720 282.276,255.400 283.589 C 254.080 284.902,252.861 285.982,252.691 285.988 C 252.522 285.995,251.473 286.900,250.362 288.000 C 249.250 289.100,248.219 290.006,248.070 290.013 C 247.922 290.020,247.179 290.650,246.419 291.413 C 245.660 292.176,244.910 292.800,244.754 292.800 C 244.597 292.800,243.820 293.430,243.027 294.200 C 242.234 294.970,241.418 295.600,241.213 295.600 C 241.008 295.600,240.696 295.835,240.520 296.122 C 240.344 296.409,239.480 297.173,238.600 297.820 C 237.720 298.466,236.856 299.221,236.680 299.498 C 236.504 299.774,236.136 300.000,235.861 300.000 C 235.587 300.000,234.921 300.532,234.381 301.183 C 233.842 301.834,233.220 302.374,233.000 302.384 C 232.615 302.400,230.886 303.712,229.566 304.987 C 229.218 305.324,228.763 305.600,228.555 305.600 C 228.348 305.600,227.870 305.960,227.493 306.400 C 227.116 306.840,226.555 307.200,226.247 307.200 C 225.938 307.200,225.582 307.470,225.455 307.800 C 225.329 308.130,224.989 308.400,224.701 308.400 C 224.413 308.400,223.888 308.715,223.534 309.100 C 222.533 310.189,221.088 311.200,220.533 311.200 C 220.255 311.200,219.835 311.560,219.600 312.000 C 219.365 312.440,218.908 312.800,218.586 312.800 C 218.264 312.800,218.000 312.958,218.000 313.151 C 218.000 313.345,217.460 313.727,216.800 314.000 C 216.140 314.273,215.600 314.655,215.600 314.849 C 215.600 315.042,215.324 315.200,214.987 315.200 C 214.651 315.200,214.271 315.470,214.145 315.800 C 214.018 316.130,213.726 316.400,213.495 316.400 C 213.264 316.400,212.486 316.850,211.764 317.400 C 211.043 317.950,210.261 318.400,210.027 318.400 C 209.792 318.400,209.600 318.558,209.600 318.751 C 209.600 318.945,209.060 319.327,208.400 319.600 C 207.740 319.873,207.200 320.255,207.200 320.449 C 207.200 320.642,206.939 320.800,206.620 320.800 C 206.301 320.800,205.896 321.036,205.720 321.323 C 205.544 321.611,204.815 322.083,204.100 322.372 C 203.385 322.661,202.800 323.055,202.800 323.249 C 202.800 323.442,202.524 323.600,202.187 323.600 C 201.851 323.600,201.471 323.870,201.345 324.200 C 201.044 324.982,198.956 324.982,198.655 324.200 C 198.529 323.870,198.149 323.600,197.813 323.600 C 197.476 323.600,197.200 323.454,197.200 323.275 C 197.200 323.096,196.577 322.705,195.817 322.407 C 195.056 322.108,194.341 321.624,194.229 321.332 C 194.117 321.039,193.749 320.800,193.413 320.800 C 193.076 320.800,192.800 320.642,192.800 320.449 C 192.800 320.255,192.260 319.873,191.600 319.600 C 190.940 319.327,190.400 318.945,190.400 318.751 C 190.400 318.558,190.158 318.400,189.861 318.400 C 189.565 318.400,188.907 318.040,188.400 317.600 C 187.893 317.160,187.241 316.800,186.953 316.800 C 186.664 316.800,186.235 316.440,186.000 316.000 C 185.765 315.560,185.308 315.200,184.986 315.200 C 184.664 315.200,184.400 315.042,184.400 314.849 C 184.400 314.655,183.860 314.273,183.200 314.000 C 182.540 313.727,182.000 313.345,182.000 313.151 C 182.000 312.958,181.724 312.800,181.387 312.800 C 181.051 312.800,180.671 312.530,180.545 312.200 C 180.418 311.870,180.109 311.600,179.857 311.600 C 179.462 311.599,178.723 311.070,176.517 309.208 C 176.251 308.984,175.917 308.800,175.775 308.800 C 175.508 308.800,173.494 307.262,172.366 306.198 C 172.018 305.869,171.583 305.600,171.400 305.600 C 171.217 305.600,170.782 305.324,170.434 304.987 C 169.195 303.790,167.395 302.401,167.081 302.400 C 166.905 302.400,166.345 301.950,165.835 301.400 C 165.325 300.850,164.736 300.400,164.526 300.400 C 164.316 300.400,163.753 299.950,163.275 299.400 C 162.797 298.850,162.226 298.400,162.006 298.400 C 161.787 298.400,161.091 297.860,160.460 297.200 C 159.829 296.540,159.174 296.000,159.004 296.000 C 158.834 296.000,158.100 295.370,157.374 294.600 C 156.648 293.830,155.907 293.195,155.727 293.189 C 155.547 293.183,154.590 292.462,153.600 291.586 C 152.610 290.711,151.080 289.363,150.200 288.591 C 149.320 287.820,147.385 286.083,145.900 284.732 C 144.415 283.381,142.841 282.024,142.403 281.717 C 141.964 281.410,139.550 279.097,137.039 276.579 C 134.527 274.061,132.358 272.000,132.217 272.000 C 131.861 272.000,128.400 268.553,128.400 268.197 C 128.400 268.037,126.150 265.660,123.400 262.914 C 120.650 260.168,118.400 257.801,118.400 257.654 C 118.400 257.506,117.185 256.098,115.700 254.525 C 114.215 252.951,112.419 250.974,111.710 250.132 C 111.000 249.289,109.700 247.790,108.820 246.800 C 107.941 245.810,107.217 244.853,107.211 244.673 C 107.205 244.493,106.570 243.752,105.800 243.026 C 105.030 242.300,104.400 241.566,104.400 241.396 C 104.400 241.226,103.860 240.571,103.200 239.940 C 102.540 239.309,102.000 238.646,102.000 238.466 C 102.000 238.287,101.550 237.717,101.000 237.200 C 100.450 236.683,100.000 236.103,100.000 235.911 C 100.000 235.719,99.550 235.145,99.000 234.635 C 98.450 234.125,98.000 233.535,98.000 233.324 C 98.000 233.112,97.550 232.517,97.000 232.000 C 96.450 231.483,96.000 230.865,96.000 230.626 C 96.000 230.388,95.640 229.968,95.200 229.693 C 94.760 229.418,94.400 229.007,94.400 228.780 C 94.400 228.552,94.216 228.149,93.992 227.883 C 92.213 225.775,91.601 224.956,91.600 224.681 C 91.600 224.505,91.192 223.965,90.694 223.481 C 90.196 222.996,89.521 222.070,89.194 221.422 C 88.867 220.773,88.186 219.783,87.681 219.222 C 86.515 217.925,84.800 215.283,84.800 214.782 C 84.800 214.572,84.616 214.400,84.390 214.400 C 84.165 214.400,83.809 213.950,83.600 213.400 C 83.391 212.850,83.035 212.400,82.810 212.400 C 82.584 212.400,82.400 212.158,82.400 211.861 C 82.400 211.565,82.035 210.902,81.589 210.387 C 81.143 209.873,80.677 209.049,80.553 208.555 C 80.429 208.062,80.074 207.561,79.764 207.441 C 79.454 207.322,79.200 206.949,79.200 206.613 C 79.200 206.276,79.054 206.000,78.875 206.000 C 78.696 206.000,78.302 205.370,78.000 204.600 C 77.698 203.830,77.322 203.200,77.166 203.200 C 76.128 203.200,75.253 200.040,76.021 199.064 C 76.449 198.520,76.800 197.877,76.800 197.637 C 76.800 197.397,76.936 197.200,77.102 197.200 C 77.269 197.200,77.664 196.615,77.980 195.900 C 78.297 195.185,78.704 194.420,78.885 194.200 C 79.066 193.980,79.571 193.367,80.007 192.839 C 80.443 192.310,80.800 191.629,80.800 191.326 C 80.800 191.023,81.070 190.671,81.400 190.545 C 81.730 190.418,82.000 190.073,82.000 189.777 C 82.000 189.482,82.225 189.096,82.501 188.920 C 82.776 188.744,83.271 188.060,83.601 187.400 C 84.232 186.136,84.343 185.973,85.607 184.439 C 86.043 183.910,86.400 183.229,86.400 182.926 C 86.400 182.623,86.670 182.271,87.000 182.145 C 87.330 182.018,87.600 181.658,87.600 181.345 C 87.600 181.031,87.870 180.671,88.200 180.545 C 88.530 180.418,88.800 180.098,88.800 179.833 C 88.800 179.568,89.160 178.964,89.600 178.492 C 90.040 178.020,90.400 177.452,90.400 177.231 C 90.400 177.009,90.760 176.635,91.200 176.400 C 91.640 176.165,92.000 175.745,92.000 175.467 C 92.000 174.912,93.011 173.467,94.100 172.466 C 94.485 172.112,94.800 171.652,94.800 171.445 C 94.800 171.237,95.069 170.782,95.398 170.434 C 96.554 169.208,98.000 167.281,98.017 166.942 C 98.026 166.754,98.566 166.158,99.217 165.619 C 99.868 165.079,100.400 164.471,100.400 164.267 C 100.400 163.941,101.453 162.630,104.034 159.744 C 104.455 159.273,104.800 158.781,104.800 158.651 C 104.800 158.521,105.385 157.800,106.100 157.050 C 106.815 156.299,107.760 155.181,108.200 154.565 C 108.640 153.949,109.315 153.170,109.700 152.833 C 110.085 152.497,110.400 152.072,110.400 151.889 C 110.400 151.705,111.300 150.692,112.400 149.637 C 113.500 148.583,114.400 147.587,114.400 147.424 C 114.400 147.261,115.660 145.850,117.200 144.289 C 118.740 142.727,120.000 141.322,120.000 141.165 C 120.000 140.796,140.401 120.440,141.783 119.430 C 142.363 119.006,143.801 117.746,144.979 116.630 C 146.157 115.513,148.070 113.790,149.230 112.800 C 150.391 111.810,151.724 110.640,152.194 110.200 C 152.663 109.760,153.750 108.866,154.609 108.214 C 155.469 107.562,156.461 106.752,156.814 106.414 C 157.168 106.076,158.140 105.260,158.974 104.600 C 161.335 102.733,162.955 101.442,163.490 101.003 C 163.759 100.781,164.444 100.240,165.010 99.800 C 165.577 99.360,166.395 98.706,166.829 98.346 C 167.262 97.986,168.242 97.266,169.006 96.746 C 169.770 96.226,170.396 95.665,170.397 95.500 C 170.399 95.335,170.660 95.200,170.977 95.200 C 171.295 95.200,171.790 94.866,172.077 94.457 C 172.365 94.049,173.005 93.587,173.500 93.430 C 173.995 93.274,174.400 92.974,174.400 92.763 C 174.400 92.553,174.850 92.209,175.400 92.000 C 175.950 91.791,176.400 91.435,176.400 91.210 C 176.400 90.984,176.676 90.800,177.013 90.800 C 177.349 90.800,177.724 90.543,177.845 90.228 C 177.965 89.913,178.590 89.473,179.232 89.249 C 179.874 89.025,180.400 88.652,180.400 88.421 C 180.400 88.189,180.676 88.000,181.013 88.000 C 181.349 88.000,181.729 87.730,181.855 87.400 C 181.982 87.070,182.302 86.800,182.567 86.800 C 182.832 86.800,183.436 86.440,183.908 86.000 C 184.380 85.560,184.945 85.200,185.163 85.200 C 185.382 85.200,185.704 84.975,185.880 84.699 C 186.056 84.424,186.740 83.929,187.400 83.600 C 188.060 83.271,188.744 82.776,188.920 82.501 C 189.096 82.225,189.501 82.000,189.820 82.000 C 190.139 82.000,190.400 81.842,190.400 81.649 C 190.400 81.455,190.985 81.057,191.700 80.763 C 192.415 80.470,193.180 80.085,193.400 79.907 C 193.620 79.730,194.233 79.229,194.761 78.793 C 195.290 78.357,195.956 78.000,196.241 78.000 C 196.527 78.000,196.904 77.775,197.080 77.500 C 197.725 76.492,200.400 75.284,200.400 76.000 M381.146 200.300 C 381.116 238.965,381.013 270.195,380.918 269.700 C 380.822 269.205,380.606 268.800,380.436 268.800 C 380.266 268.800,379.906 267.810,379.635 266.600 C 379.364 265.390,378.996 264.400,378.817 264.400 C 378.637 264.400,378.369 263.590,378.221 262.600 C 378.072 261.610,377.802 260.800,377.620 260.800 C 377.438 260.800,377.178 260.215,377.042 259.500 C 376.907 258.785,376.544 257.717,376.236 257.127 C 375.927 256.537,375.554 255.502,375.406 254.827 C 375.258 254.152,374.999 253.600,374.832 253.600 C 374.665 253.600,374.290 252.610,374.000 251.400 C 373.710 250.190,373.329 249.200,373.154 249.200 C 372.979 249.200,372.718 248.570,372.574 247.800 C 372.429 247.030,372.169 246.400,371.995 246.400 C 371.822 246.400,371.464 245.500,371.200 244.400 C 370.936 243.300,370.566 242.400,370.378 242.400 C 370.190 242.400,369.918 241.770,369.774 241.000 C 369.629 240.230,369.371 239.600,369.199 239.600 C 369.027 239.600,368.765 239.105,368.616 238.500 C 368.327 237.328,366.763 233.934,366.358 233.600 C 366.225 233.490,365.890 232.708,365.614 231.861 C 365.338 231.015,364.863 229.845,364.559 229.261 C 364.254 228.678,364.004 227.975,364.002 227.700 C 364.001 227.425,363.827 227.200,363.616 227.200 C 363.405 227.200,363.016 226.480,362.753 225.600 C 362.489 224.720,362.136 224.000,361.968 224.000 C 361.801 224.000,361.545 223.460,361.400 222.800 C 361.255 222.140,360.978 221.600,360.784 221.600 C 360.591 221.600,360.216 220.880,359.953 220.000 C 359.689 219.120,359.336 218.400,359.168 218.400 C 359.001 218.400,358.745 217.860,358.600 217.200 C 358.455 216.540,358.178 216.000,357.984 216.000 C 357.791 216.000,357.416 215.280,357.153 214.400 C 356.889 213.520,356.541 212.800,356.380 212.800 C 356.219 212.800,355.963 212.307,355.812 211.704 C 355.660 211.101,355.401 210.516,355.235 210.404 C 355.069 210.292,354.448 209.165,353.855 207.900 C 353.262 206.635,352.602 205.600,352.388 205.600 C 352.175 205.600,352.000 205.357,352.000 205.060 C 352.000 204.762,351.550 203.673,351.000 202.638 C 349.755 200.297,349.773 199.878,351.225 197.400 C 351.870 196.300,352.619 194.950,352.890 194.400 C 353.162 193.850,353.496 193.310,353.634 193.200 C 353.771 193.090,354.104 192.325,354.373 191.500 C 354.642 190.675,355.014 190.000,355.199 190.000 C 355.385 190.000,355.652 189.475,355.793 188.833 C 355.934 188.192,356.291 187.574,356.587 187.460 C 356.883 187.347,357.246 186.702,357.394 186.027 C 357.542 185.352,357.815 184.800,358.000 184.800 C 358.185 184.800,358.455 184.260,358.600 183.600 C 358.745 182.940,359.022 182.400,359.216 182.400 C 359.409 182.400,359.784 181.680,360.047 180.800 C 360.311 179.920,360.670 179.200,360.845 179.200 C 361.020 179.200,361.282 178.570,361.426 177.800 C 361.571 177.030,361.821 176.400,361.981 176.400 C 362.142 176.400,362.489 175.680,362.753 174.800 C 363.016 173.920,363.391 173.200,363.584 173.200 C 363.778 173.200,364.055 172.660,364.200 172.000 C 364.345 171.340,364.608 170.800,364.784 170.800 C 364.961 170.800,365.320 169.947,365.582 168.905 C 365.845 167.863,366.181 166.918,366.330 166.804 C 366.858 166.401,368.304 163.380,368.582 162.100 C 368.737 161.385,369.021 160.800,369.214 160.800 C 369.406 160.800,369.682 160.170,369.826 159.400 C 369.971 158.630,370.231 158.000,370.405 158.000 C 370.578 158.000,370.936 157.100,371.200 156.000 C 371.464 154.900,371.834 154.000,372.022 154.000 C 372.210 154.000,372.482 153.370,372.626 152.600 C 372.771 151.830,373.036 151.200,373.216 151.200 C 373.396 151.200,373.764 150.210,374.035 149.000 C 374.306 147.790,374.671 146.800,374.846 146.800 C 375.021 146.800,375.282 146.170,375.426 145.400 C 375.571 144.630,375.836 144.000,376.016 144.000 C 376.196 144.000,376.564 143.010,376.835 141.800 C 377.106 140.590,377.479 139.600,377.664 139.600 C 377.849 139.600,378.000 139.320,378.000 138.978 C 378.000 138.636,378.340 137.601,378.756 136.678 C 379.171 135.755,379.637 134.235,379.791 133.300 C 379.944 132.365,380.234 131.600,380.435 131.600 C 380.636 131.600,380.800 131.240,380.800 130.800 C 380.800 130.360,380.890 130.000,381.000 130.000 C 381.110 130.000,381.175 161.635,381.146 200.300 M19.564 132.800 C 19.734 132.800,20.101 133.835,20.381 135.100 C 20.660 136.365,21.028 137.580,21.198 137.800 C 21.368 138.020,21.633 138.785,21.786 139.500 C 21.938 140.215,22.201 140.800,22.368 140.800 C 22.536 140.800,22.894 141.790,23.165 143.000 C 23.436 144.210,23.804 145.200,23.984 145.200 C 24.164 145.200,24.429 145.830,24.574 146.600 C 24.718 147.370,24.979 148.000,25.154 148.000 C 25.329 148.000,25.710 148.990,26.000 150.200 C 26.290 151.410,26.671 152.400,26.846 152.400 C 27.021 152.400,27.282 153.030,27.426 153.800 C 27.571 154.570,27.835 155.200,28.013 155.200 C 28.191 155.200,28.465 155.785,28.622 156.500 C 28.778 157.215,29.243 158.427,29.653 159.194 C 30.064 159.961,30.400 160.906,30.400 161.294 C 30.400 161.682,30.581 162.000,30.802 162.000 C 31.022 162.000,31.420 162.810,31.684 163.800 C 31.949 164.790,32.294 165.600,32.451 165.600 C 32.608 165.600,32.855 166.140,33.000 166.800 C 33.145 167.460,33.410 168.000,33.588 168.000 C 33.767 168.000,34.030 168.464,34.172 169.032 C 34.560 170.578,36.111 174.000,36.423 174.000 C 36.573 174.000,36.923 174.810,37.200 175.800 C 37.477 176.790,37.841 177.600,38.009 177.600 C 38.176 177.600,38.426 178.050,38.564 178.600 C 38.702 179.150,38.968 179.600,39.156 179.600 C 39.343 179.600,39.723 180.410,40.000 181.400 C 40.277 182.390,40.641 183.200,40.809 183.200 C 40.976 183.200,41.226 183.650,41.364 184.200 C 41.502 184.750,41.768 185.200,41.956 185.200 C 42.143 185.200,42.523 186.010,42.800 187.000 C 43.077 187.990,43.461 188.800,43.652 188.800 C 43.843 188.800,44.000 189.057,44.000 189.371 C 44.000 189.686,44.233 190.181,44.517 190.471 C 44.801 190.762,45.273 191.585,45.565 192.300 C 45.858 193.015,46.241 193.600,46.417 193.600 C 46.593 193.600,46.855 194.140,47.000 194.800 C 47.145 195.460,47.410 196.000,47.588 196.000 C 47.767 196.000,48.023 196.437,48.157 196.972 C 48.291 197.507,48.693 198.236,49.051 198.593 C 49.760 199.303,49.927 201.140,49.318 201.545 C 49.108 201.685,48.681 202.385,48.370 203.100 C 48.059 203.815,47.683 204.400,47.534 204.400 C 47.385 204.400,47.145 204.940,47.000 205.600 C 46.855 206.260,46.578 206.800,46.384 206.800 C 46.191 206.800,45.816 207.520,45.553 208.400 C 45.289 209.280,44.927 210.000,44.748 210.000 C 44.388 210.000,42.400 214.010,42.400 214.739 C 42.400 214.992,42.223 215.200,42.008 215.200 C 41.792 215.200,41.502 215.650,41.364 216.200 C 41.226 216.750,40.976 217.200,40.809 217.200 C 40.641 217.200,40.277 218.010,40.000 219.000 C 39.723 219.990,39.343 220.800,39.156 220.800 C 38.968 220.800,38.702 221.250,38.564 221.800 C 38.426 222.350,38.176 222.800,38.009 222.800 C 37.841 222.800,37.477 223.610,37.200 224.600 C 36.923 225.590,36.559 226.400,36.393 226.400 C 36.226 226.400,35.971 227.030,35.826 227.800 C 35.682 228.570,35.399 229.200,35.198 229.200 C 34.997 229.200,34.616 229.920,34.353 230.800 C 34.089 231.680,33.730 232.400,33.555 232.400 C 33.380 232.400,33.118 233.030,32.974 233.800 C 32.829 234.570,32.574 235.200,32.407 235.200 C 32.241 235.200,31.869 236.055,31.582 237.100 C 31.294 238.145,30.934 239.090,30.781 239.200 C 30.398 239.475,28.919 242.786,28.586 244.114 C 28.436 244.711,28.153 245.200,27.957 245.200 C 27.760 245.200,27.600 245.480,27.600 245.822 C 27.600 246.164,27.235 247.244,26.790 248.222 C 26.344 249.200,25.872 250.540,25.740 251.200 C 25.608 251.860,25.357 252.400,25.182 252.400 C 25.007 252.400,24.742 252.952,24.594 253.627 C 24.446 254.302,24.073 255.337,23.764 255.927 C 23.456 256.517,23.093 257.585,22.958 258.300 C 22.822 259.015,22.551 259.600,22.355 259.600 C 22.160 259.600,22.000 260.010,22.000 260.511 C 22.000 261.012,21.752 261.777,21.450 262.211 C 21.147 262.645,20.668 264.035,20.386 265.300 C 20.104 266.565,19.734 267.600,19.564 267.600 C 19.394 267.600,19.178 268.005,19.082 268.500 C 18.987 268.995,18.909 238.260,18.909 200.200 C 18.909 162.140,18.987 131.405,19.082 131.900 C 19.178 132.395,19.394 132.800,19.564 132.800 M63.600 221.739 C 63.600 222.035,63.960 222.693,64.400 223.200 C 64.840 223.707,65.200 224.371,65.200 224.674 C 65.200 224.977,65.470 225.329,65.800 225.455 C 66.130 225.582,66.400 225.942,66.400 226.255 C 66.400 226.569,66.654 226.922,66.963 227.041 C 67.273 227.160,67.745 227.785,68.012 228.429 C 68.279 229.073,68.655 229.600,68.849 229.600 C 69.042 229.600,69.200 229.861,69.200 230.180 C 69.200 230.499,69.425 230.904,69.701 231.080 C 69.976 231.256,70.471 231.939,70.801 232.597 C 71.130 233.255,71.763 234.155,72.206 234.597 C 72.649 235.039,73.279 235.931,73.606 236.580 C 73.933 237.229,74.692 238.309,75.293 238.980 C 77.315 241.237,77.600 241.599,77.600 241.911 C 77.600 242.082,77.960 242.530,78.400 242.907 C 78.840 243.284,79.200 243.858,79.200 244.182 C 79.200 244.506,79.560 244.965,80.000 245.200 C 80.440 245.435,80.800 245.827,80.800 246.071 C 80.800 246.314,81.323 247.013,81.963 247.625 C 82.602 248.236,83.239 249.094,83.378 249.531 C 83.517 249.968,83.894 250.427,84.215 250.550 C 84.537 250.674,84.800 251.042,84.800 251.368 C 84.800 251.694,85.035 252.104,85.322 252.280 C 85.609 252.456,86.374 253.309,87.022 254.176 C 87.670 255.043,88.560 256.143,89.000 256.620 C 89.440 257.096,90.430 258.254,91.200 259.192 C 91.970 260.131,93.364 261.731,94.298 262.749 C 95.232 263.767,95.997 264.719,95.998 264.865 C 95.999 265.010,96.945 266.133,98.100 267.360 C 99.255 268.587,101.460 270.970,103.000 272.657 C 106.252 276.218,114.262 284.589,115.332 285.546 C 115.735 285.906,117.895 288.044,120.132 290.298 C 122.370 292.551,124.341 294.396,124.513 294.398 C 124.685 294.399,126.160 295.705,127.791 297.300 C 131.832 301.253,135.027 304.142,135.548 304.316 C 135.786 304.395,136.930 305.342,138.090 306.421 C 142.417 310.441,142.830 310.800,143.131 310.800 C 143.405 310.800,145.453 312.540,147.842 314.802 C 148.305 315.241,148.808 315.600,148.959 315.600 C 149.110 315.600,149.631 315.979,150.117 316.442 C 150.603 316.905,151.450 317.576,152.000 317.932 C 152.550 318.289,153.144 318.810,153.320 319.090 C 153.496 319.371,153.841 319.600,154.086 319.600 C 154.332 319.600,154.818 319.876,155.166 320.213 C 156.588 321.587,158.228 322.799,158.667 322.800 C 158.923 322.800,159.193 322.963,159.267 323.161 C 159.390 323.494,162.321 325.784,164.436 327.200 C 164.929 327.530,165.633 328.070,166.001 328.400 C 166.773 329.092,167.719 329.722,169.365 330.639 C 170.005 330.995,170.974 331.700,171.519 332.205 C 172.063 332.710,172.979 333.365,173.554 333.662 C 174.129 333.958,174.799 334.380,175.043 334.600 C 175.287 334.820,176.227 335.450,177.133 336.000 C 179.105 337.199,179.172 337.455,177.600 337.800 C 176.940 337.945,176.400 338.222,176.400 338.416 C 176.400 338.609,175.680 338.984,174.800 339.247 C 173.920 339.511,173.200 339.864,173.200 340.032 C 173.200 340.199,172.660 340.455,172.000 340.600 C 171.340 340.745,170.800 341.022,170.800 341.216 C 170.800 341.409,170.080 341.784,169.200 342.047 C 168.320 342.311,167.600 342.664,167.600 342.832 C 167.600 342.999,167.060 343.255,166.400 343.400 C 165.740 343.545,165.200 343.822,165.200 344.016 C 165.200 344.209,164.480 344.584,163.600 344.847 C 162.720 345.111,162.000 345.478,162.000 345.663 C 162.000 345.848,161.685 346.006,161.300 346.013 C 160.915 346.019,159.700 346.468,158.600 347.009 C 157.500 347.550,156.300 347.994,155.933 347.996 C 155.567 347.998,155.207 348.139,155.133 348.308 C 155.060 348.478,153.740 349.142,152.200 349.784 C 150.660 350.426,149.310 351.069,149.200 351.214 C 149.090 351.358,148.466 351.608,147.814 351.768 C 147.162 351.928,145.866 352.405,144.936 352.829 C 144.005 353.253,142.979 353.600,142.655 353.600 C 142.332 353.600,142.007 353.744,141.933 353.920 C 141.788 354.268,137.276 355.918,135.500 356.272 C 134.895 356.392,134.400 356.622,134.400 356.782 C 134.400 356.941,133.410 357.310,132.200 357.600 C 130.990 357.890,130.000 358.263,130.000 358.429 C 130.000 358.594,129.280 358.851,128.400 359.000 C 127.520 359.149,126.800 359.411,126.800 359.583 C 126.800 359.755,125.726 360.107,124.413 360.366 C 123.100 360.624,121.929 360.992,121.811 361.183 C 121.692 361.374,120.877 361.652,119.998 361.800 C 119.119 361.949,118.400 362.218,118.400 362.399 C 118.400 362.580,117.140 362.940,115.600 363.200 C 114.060 363.460,112.800 363.830,112.800 364.022 C 112.800 364.215,111.900 364.492,110.800 364.638 C 109.700 364.784,108.800 365.047,108.800 365.222 C 108.800 365.398,107.450 365.760,105.800 366.026 C 104.150 366.292,102.800 366.648,102.800 366.817 C 102.800 366.987,101.900 367.249,100.800 367.400 C 99.700 367.551,98.800 367.809,98.800 367.973 C 98.800 368.137,97.270 368.509,95.400 368.800 C 93.530 369.091,92.000 369.457,92.000 369.613 C 92.000 369.769,90.925 370.018,89.612 370.167 C 88.299 370.315,87.133 370.585,87.021 370.766 C 86.909 370.947,85.104 371.322,83.009 371.599 C 80.914 371.876,79.200 372.239,79.200 372.404 C 79.200 372.570,77.850 372.833,76.200 372.987 C 74.550 373.142,73.200 373.399,73.200 373.559 C 73.200 373.719,70.995 374.089,68.300 374.381 C 65.605 374.674,63.217 375.055,62.993 375.228 C 62.770 375.401,61.015 375.671,59.093 375.827 C 57.172 375.982,55.600 376.241,55.600 376.401 C 55.600 376.561,52.405 376.906,48.500 377.167 C 44.595 377.429,41.107 377.801,40.750 377.994 C 40.392 378.187,36.837 378.473,32.850 378.631 C 28.862 378.788,25.600 379.071,25.600 379.259 C 25.600 379.446,24.520 379.600,23.200 379.600 L 20.800 379.600 20.800 375.400 C 20.800 373.090,20.954 371.200,21.143 371.200 C 21.331 371.200,21.614 368.185,21.772 364.500 C 21.929 360.815,22.225 357.740,22.429 357.667 C 22.633 357.593,22.800 356.783,22.799 355.867 C 22.798 352.943,23.725 343.600,24.016 343.600 C 24.171 343.600,24.426 341.935,24.585 339.900 C 24.743 337.865,25.012 336.020,25.183 335.800 C 25.354 335.580,25.721 333.375,26.000 330.900 C 26.279 328.425,26.645 326.400,26.813 326.400 C 26.981 326.400,27.245 325.139,27.400 323.598 C 27.555 322.058,27.823 320.710,27.995 320.603 C 28.168 320.496,28.538 318.607,28.819 316.405 C 29.100 314.202,29.460 312.400,29.619 312.400 C 29.778 312.400,30.031 311.413,30.182 310.206 C 30.333 309.000,30.601 307.923,30.778 307.814 C 30.955 307.704,31.324 306.171,31.599 304.407 C 31.873 302.643,32.233 301.200,32.397 301.200 C 32.562 301.200,32.822 300.259,32.974 299.110 C 33.127 297.960,33.400 296.835,33.582 296.610 C 33.764 296.384,34.132 295.120,34.400 293.800 C 34.668 292.480,35.024 291.220,35.191 291.000 C 35.359 290.780,35.625 289.880,35.784 289.000 C 35.942 288.120,36.209 287.220,36.376 287.000 C 36.543 286.780,36.912 285.475,37.195 284.100 C 37.478 282.725,37.854 281.600,38.030 281.600 C 38.207 281.600,38.472 280.790,38.621 279.800 C 38.769 278.810,39.026 278.000,39.191 278.000 C 39.356 278.000,39.720 276.920,40.000 275.600 C 40.280 274.280,40.645 273.200,40.810 273.200 C 40.976 273.200,41.237 272.525,41.391 271.700 C 41.545 270.875,41.812 270.020,41.984 269.800 C 42.156 269.580,42.534 268.455,42.824 267.300 C 43.114 266.145,43.481 265.200,43.640 265.200 C 43.800 265.200,44.051 264.480,44.200 263.600 C 44.349 262.720,44.617 262.000,44.795 262.000 C 44.974 262.000,45.336 261.100,45.600 260.000 C 45.864 258.900,46.242 258.000,46.440 258.000 C 46.638 258.000,46.800 257.720,46.800 257.378 C 46.800 257.036,47.165 255.956,47.610 254.978 C 48.056 254.000,48.528 252.660,48.660 252.000 C 48.792 251.340,49.043 250.800,49.218 250.800 C 49.393 250.800,49.655 250.260,49.800 249.600 C 49.945 248.940,50.229 248.400,50.432 248.400 C 50.634 248.400,50.800 248.097,50.800 247.726 C 50.800 247.074,51.423 245.578,53.435 241.394 C 53.966 240.291,54.400 239.166,54.400 238.894 C 54.400 238.622,54.560 238.400,54.755 238.400 C 54.951 238.400,55.229 237.770,55.374 237.000 C 55.518 236.230,55.779 235.600,55.954 235.600 C 56.129 235.600,56.510 234.880,56.800 234.000 C 57.090 233.120,57.465 232.400,57.632 232.400 C 57.800 232.400,58.055 231.860,58.200 231.200 C 58.345 230.540,58.600 230.000,58.768 230.000 C 58.935 230.000,59.310 229.280,59.600 228.400 C 59.890 227.520,60.265 226.800,60.432 226.800 C 60.600 226.800,60.855 226.260,61.000 225.600 C 61.145 224.940,61.400 224.400,61.568 224.400 C 61.735 224.400,62.110 223.680,62.400 222.800 C 62.912 221.250,63.600 220.641,63.600 221.739 M337.600 222.800 C 337.890 223.680,338.265 224.400,338.432 224.400 C 338.600 224.400,338.855 224.940,339.000 225.600 C 339.145 226.260,339.400 226.800,339.568 226.800 C 339.735 226.800,340.110 227.520,340.400 228.400 C 340.690 229.280,341.065 230.000,341.232 230.000 C 341.400 230.000,341.655 230.540,341.800 231.200 C 341.945 231.860,342.193 232.400,342.351 232.400 C 342.510 232.400,342.868 233.075,343.148 233.900 C 343.827 235.899,344.928 238.168,345.300 238.333 C 345.465 238.407,345.600 238.684,345.600 238.949 C 345.600 239.214,345.940 240.098,346.356 240.914 C 346.772 241.730,347.231 242.870,347.376 243.447 C 347.521 244.024,347.901 244.758,348.220 245.077 C 348.539 245.396,348.800 246.081,348.800 246.600 C 348.800 247.119,349.072 247.815,349.405 248.148 C 349.738 248.481,350.121 249.304,350.255 249.977 C 350.390 250.650,350.640 251.200,350.810 251.200 C 350.981 251.200,351.336 252.100,351.600 253.200 C 351.864 254.300,352.222 255.200,352.395 255.200 C 352.569 255.200,352.829 255.830,352.974 256.600 C 353.118 257.370,353.379 258.000,353.554 258.000 C 353.729 258.000,354.110 258.990,354.400 260.200 C 354.690 261.410,355.059 262.400,355.219 262.400 C 355.380 262.400,355.629 263.030,355.774 263.800 C 355.918 264.570,356.185 265.200,356.367 265.200 C 356.549 265.200,356.816 265.942,356.962 266.850 C 357.107 267.757,357.580 269.277,358.013 270.228 C 358.446 271.178,358.800 272.236,358.800 272.578 C 358.800 272.920,358.951 273.200,359.136 273.200 C 359.321 273.200,359.701 274.235,359.981 275.500 C 360.260 276.765,360.633 277.980,360.809 278.200 C 360.985 278.420,361.255 279.275,361.409 280.100 C 361.563 280.925,361.820 281.600,361.980 281.600 C 362.141 281.600,362.497 282.860,362.772 284.400 C 363.047 285.940,363.419 287.200,363.599 287.200 C 363.778 287.200,364.049 288.100,364.200 289.200 C 364.351 290.300,364.626 291.200,364.811 291.200 C 364.996 291.200,365.375 292.550,365.652 294.200 C 365.929 295.850,366.295 297.200,366.464 297.200 C 366.634 297.200,366.892 298.100,367.038 299.200 C 367.184 300.300,367.435 301.200,367.597 301.200 C 367.758 301.200,368.113 302.595,368.386 304.300 C 368.659 306.005,369.021 307.580,369.192 307.800 C 369.362 308.020,369.626 309.235,369.779 310.500 C 369.932 311.765,370.195 312.800,370.364 312.800 C 370.533 312.800,370.909 314.600,371.200 316.800 C 371.491 319.000,371.865 320.800,372.031 320.800 C 372.196 320.800,372.458 322.150,372.613 323.800 C 372.767 325.450,373.034 326.800,373.205 326.800 C 373.377 326.800,373.749 328.960,374.033 331.600 C 374.317 334.240,374.672 336.400,374.823 336.400 C 374.974 336.400,375.227 338.065,375.386 340.100 C 375.545 342.135,375.820 343.890,375.996 344.000 C 376.171 344.110,376.542 347.260,376.819 351.000 C 377.096 354.740,377.458 357.890,377.624 358.001 C 377.790 358.111,378.057 361.486,378.218 365.501 C 378.379 369.515,378.666 372.800,378.855 372.800 C 379.045 372.800,379.200 374.330,379.200 376.200 L 379.200 379.600 376.800 379.600 C 375.480 379.600,374.400 379.446,374.400 379.259 C 374.400 379.071,371.138 378.788,367.150 378.631 C 363.163 378.473,359.608 378.187,359.250 377.994 C 358.893 377.801,355.405 377.429,351.500 377.167 C 347.595 376.906,344.400 376.561,344.400 376.401 C 344.400 376.241,342.850 375.984,340.955 375.831 C 339.061 375.677,337.216 375.391,336.855 375.195 C 336.495 374.999,334.085 374.629,331.500 374.372 C 328.915 374.115,326.800 373.767,326.800 373.599 C 326.800 373.431,325.450 373.167,323.800 373.013 C 322.150 372.858,320.800 372.599,320.800 372.437 C 320.800 372.275,319.086 371.907,316.992 371.620 C 314.897 371.332,313.092 370.948,312.979 370.767 C 312.867 370.585,311.701 370.315,310.388 370.167 C 309.075 370.018,308.000 369.769,308.000 369.613 C 308.000 369.457,306.470 369.091,304.600 368.800 C 302.730 368.509,301.200 368.137,301.200 367.973 C 301.200 367.809,300.300 367.551,299.200 367.400 C 298.100 367.249,297.200 366.987,297.200 366.817 C 297.200 366.648,295.850 366.292,294.200 366.026 C 292.550 365.760,291.200 365.398,291.200 365.222 C 291.200 365.047,290.300 364.784,289.200 364.638 C 288.100 364.492,287.200 364.215,287.200 364.022 C 287.200 363.830,285.940 363.460,284.400 363.200 C 282.860 362.940,281.600 362.580,281.600 362.399 C 281.600 362.218,280.881 361.949,280.002 361.800 C 279.123 361.652,278.308 361.374,278.189 361.183 C 278.071 360.992,276.900 360.624,275.587 360.366 C 274.274 360.107,273.200 359.759,273.200 359.592 C 273.200 359.426,272.578 359.172,271.817 359.030 C 271.056 358.887,269.931 358.508,269.317 358.187 C 268.703 357.867,267.615 357.493,266.900 357.358 C 266.185 357.222,265.600 356.971,265.600 356.801 C 265.600 356.630,264.790 356.369,263.800 356.221 C 262.810 356.072,262.000 355.800,262.000 355.615 C 262.000 355.431,261.100 355.064,260.000 354.800 C 258.900 354.536,258.000 354.158,258.000 353.960 C 258.000 353.762,257.720 353.600,257.378 353.600 C 257.036 353.600,255.956 353.235,254.978 352.790 C 254.000 352.344,252.660 351.872,252.000 351.740 C 251.340 351.608,250.800 351.351,250.800 351.168 C 250.800 350.986,250.170 350.718,249.400 350.574 C 248.630 350.429,248.000 350.187,248.000 350.036 C 248.000 349.696,245.587 348.800,244.672 348.800 C 244.302 348.800,244.000 348.664,244.000 348.498 C 244.000 348.143,240.688 346.580,239.100 346.186 C 238.495 346.036,238.000 345.781,238.000 345.620 C 238.000 345.459,237.280 345.111,236.400 344.847 C 235.520 344.584,234.800 344.209,234.800 344.016 C 234.800 343.822,234.260 343.545,233.600 343.400 C 232.940 343.255,232.400 342.989,232.400 342.808 C 232.400 342.628,231.500 342.264,230.400 342.000 C 229.300 341.736,228.400 341.362,228.400 341.168 C 228.400 340.974,227.950 340.702,227.400 340.564 C 226.850 340.426,226.400 340.176,226.400 340.009 C 226.400 339.841,225.602 339.480,224.626 339.207 C 223.650 338.934,222.755 338.461,222.638 338.155 C 222.521 337.850,222.149 337.600,221.813 337.600 C 220.739 337.600,221.148 337.033,223.101 335.818 C 224.145 335.168,225.144 334.403,225.320 334.118 C 225.496 333.833,225.818 333.600,226.036 333.600 C 226.380 333.600,228.634 332.173,229.200 331.596 C 229.553 331.236,232.775 329.200,232.991 329.200 C 233.106 329.200,233.533 328.885,233.941 328.500 C 235.504 327.023,237.105 325.777,238.166 325.214 C 238.772 324.892,239.713 324.217,240.255 323.714 C 240.797 323.211,241.367 322.800,241.521 322.800 C 241.802 322.799,243.656 321.351,244.834 320.213 C 245.182 319.876,245.640 319.600,245.852 319.600 C 246.064 319.600,246.679 319.068,247.219 318.417 C 247.758 317.766,248.406 317.226,248.658 317.217 C 248.910 317.208,249.540 316.753,250.058 316.207 C 250.576 315.661,251.141 315.211,251.313 315.207 C 251.486 315.203,252.155 314.660,252.800 314.000 C 253.445 313.340,254.114 312.797,254.287 312.793 C 254.459 312.789,255.024 312.339,255.542 311.793 C 256.060 311.247,256.639 310.800,256.829 310.800 C 257.018 310.800,257.802 310.215,258.571 309.500 C 260.960 307.278,264.138 304.482,265.600 303.317 C 266.370 302.703,267.445 301.705,267.989 301.100 C 268.533 300.495,269.138 300.000,269.333 300.000 C 269.528 300.000,271.193 298.470,273.034 296.600 C 274.875 294.730,276.520 293.197,276.690 293.193 C 277.062 293.185,291.196 278.873,296.000 273.641 C 297.870 271.604,300.345 268.950,301.500 267.743 C 302.655 266.536,303.600 265.420,303.600 265.263 C 303.600 265.107,304.314 264.263,305.187 263.389 C 306.060 262.515,306.780 261.653,306.787 261.473 C 306.794 261.293,307.430 260.552,308.200 259.826 C 308.970 259.100,309.600 258.374,309.600 258.213 C 309.600 258.052,310.230 257.290,311.000 256.520 C 311.770 255.750,312.400 254.960,312.400 254.763 C 312.400 254.567,312.940 253.891,313.600 253.260 C 314.260 252.629,314.800 251.940,314.800 251.729 C 314.800 251.517,315.250 250.953,315.800 250.475 C 316.350 249.997,316.800 249.377,316.800 249.099 C 316.800 248.820,317.160 248.368,317.600 248.093 C 318.040 247.818,318.400 247.390,318.400 247.142 C 318.400 246.895,318.850 246.275,319.400 245.765 C 319.950 245.255,320.400 244.695,320.400 244.519 C 320.401 244.205,321.790 242.405,322.987 241.166 C 323.324 240.818,323.600 240.363,323.600 240.155 C 323.600 239.948,323.960 239.470,324.400 239.093 C 324.840 238.716,325.200 238.179,325.200 237.900 C 325.200 237.621,325.560 237.168,326.000 236.893 C 326.440 236.618,326.800 236.207,326.800 235.980 C 326.800 235.752,326.983 235.349,327.207 235.083 C 328.830 233.159,329.200 232.615,329.200 232.153 C 329.200 231.864,329.560 231.435,330.000 231.200 C 330.440 230.965,330.800 230.508,330.800 230.186 C 330.800 229.864,330.958 229.600,331.151 229.600 C 331.345 229.600,331.727 229.060,332.000 228.400 C 332.273 227.740,332.655 227.200,332.849 227.200 C 333.042 227.200,333.200 226.939,333.200 226.620 C 333.200 226.301,333.425 225.896,333.701 225.720 C 333.976 225.544,334.471 224.860,334.800 224.200 C 335.129 223.540,335.624 222.856,335.899 222.680 C 336.175 222.504,336.400 222.099,336.400 221.780 C 336.400 220.646,337.080 221.224,337.600 222.800 M201.580 351.148 C 201.701 351.333,202.520 351.716,203.400 351.999 C 204.280 352.282,205.144 352.758,205.320 353.057 C 205.496 353.355,205.901 353.600,206.220 353.600 C 206.539 353.600,206.800 353.751,206.800 353.936 C 206.800 354.121,207.520 354.510,208.400 354.800 C 209.280 355.090,210.000 355.465,210.000 355.632 C 210.000 355.800,210.540 356.055,211.200 356.200 C 211.860 356.345,212.400 356.600,212.400 356.768 C 212.400 356.935,213.120 357.310,214.000 357.600 C 214.880 357.890,215.600 358.265,215.600 358.432 C 215.600 358.600,216.140 358.855,216.800 359.000 C 217.460 359.145,218.000 359.400,218.000 359.568 C 218.000 359.735,218.720 360.110,219.600 360.400 C 220.480 360.690,221.200 361.065,221.200 361.232 C 221.200 361.400,221.740 361.655,222.400 361.800 C 223.060 361.945,223.600 362.200,223.600 362.368 C 223.600 362.535,224.320 362.910,225.200 363.200 C 226.080 363.490,226.800 363.865,226.800 364.032 C 226.800 364.200,227.340 364.455,228.000 364.600 C 228.660 364.745,229.200 365.011,229.200 365.192 C 229.200 365.372,230.100 365.736,231.200 366.000 C 232.300 366.264,233.200 366.608,233.200 366.765 C 233.200 367.087,236.594 368.633,238.168 369.028 C 238.736 369.170,239.200 369.427,239.200 369.599 C 239.200 369.771,239.830 370.029,240.600 370.174 C 241.370 370.318,242.000 370.590,242.000 370.778 C 242.000 370.966,242.900 371.336,244.000 371.600 C 245.100 371.864,246.000 372.222,246.000 372.395 C 246.000 372.569,246.630 372.829,247.400 372.974 C 248.170 373.118,248.800 373.379,248.800 373.554 C 248.800 373.729,249.790 374.110,251.000 374.400 C 252.210 374.690,253.200 375.071,253.200 375.246 C 253.200 375.421,253.830 375.682,254.600 375.826 C 255.370 375.971,256.000 376.236,256.000 376.416 C 256.000 376.596,256.990 376.964,258.200 377.235 C 259.410 377.506,260.400 377.879,260.400 378.064 C 260.400 378.249,260.680 378.400,261.022 378.400 C 261.364 378.400,262.422 378.754,263.372 379.187 C 264.323 379.620,265.843 380.093,266.750 380.238 C 267.658 380.384,268.400 380.647,268.400 380.823 C 268.400 381.000,268.805 381.222,269.300 381.318 C 269.795 381.413,238.610 381.491,200.000 381.491 C 161.390 381.491,130.205 381.413,130.700 381.318 C 131.195 381.222,131.600 381.000,131.600 380.823 C 131.600 380.647,132.365 380.380,133.300 380.231 C 134.235 380.082,135.379 379.712,135.842 379.409 C 136.304 379.106,137.339 378.735,138.142 378.585 C 138.944 378.434,139.600 378.180,139.600 378.019 C 139.600 377.859,140.590 377.490,141.800 377.200 C 143.010 376.910,144.000 376.541,144.000 376.381 C 144.000 376.220,144.630 375.971,145.400 375.826 C 146.170 375.682,146.800 375.421,146.800 375.246 C 146.800 375.071,147.790 374.690,149.000 374.400 C 150.210 374.110,151.200 373.729,151.200 373.554 C 151.200 373.379,151.830 373.118,152.600 372.974 C 153.370 372.829,154.000 372.569,154.000 372.395 C 154.000 372.222,154.900 371.864,156.000 371.600 C 157.100 371.336,158.000 370.966,158.000 370.778 C 158.000 370.590,158.630 370.318,159.400 370.174 C 160.170 370.029,160.800 369.771,160.800 369.599 C 160.800 369.427,161.264 369.170,161.832 369.028 C 163.413 368.631,166.800 367.086,166.800 366.762 C 166.800 366.604,167.700 366.243,168.800 365.961 C 169.900 365.679,170.800 365.317,170.800 365.156 C 170.800 364.995,171.340 364.745,172.000 364.600 C 172.660 364.455,173.200 364.200,173.200 364.032 C 173.200 363.865,173.920 363.490,174.800 363.200 C 175.680 362.910,176.400 362.535,176.400 362.368 C 176.400 362.200,176.940 361.945,177.600 361.800 C 178.260 361.655,178.800 361.400,178.800 361.232 C 178.800 361.065,179.520 360.690,180.400 360.400 C 181.280 360.110,182.000 359.735,182.000 359.568 C 182.000 359.400,182.540 359.145,183.200 359.000 C 183.860 358.855,184.400 358.600,184.400 358.432 C 184.400 358.265,185.120 357.890,186.000 357.600 C 186.880 357.310,187.600 356.935,187.600 356.768 C 187.600 356.600,188.140 356.345,188.800 356.200 C 189.460 356.055,190.000 355.807,190.000 355.649 C 190.000 355.490,190.663 355.121,191.473 354.828 C 192.850 354.330,193.259 354.080,194.525 352.960 C 194.798 352.719,195.678 352.304,196.479 352.040 C 197.280 351.775,198.165 351.283,198.446 350.945 C 198.969 350.314,201.126 350.454,201.580 351.148 " stroke="none" fill="#043cdc" fill-rule="evenodd"></path><path id="path1" d="" stroke="none" fill="#083cdc" fill-rule="evenodd"></path><path id="path2" d="" stroke="none" fill="#083cdc" fill-rule="evenodd"></path><path id="path3" d="" stroke="none" fill="#083cdc" fill-rule="evenodd"></path><path id="path4" d="" stroke="none" fill="#083cdc" fill-rule="evenodd"></path></g></svg>